<svg width="16" height="22" viewBox="0 0 16 22" xmlns="http://www.w3.org/2000/svg">
    <path fill-rule="evenodd" clip-rule="evenodd" d="M11 21.75H5V20.25H11V21.75Z" fill="#B2B9CA"/>
    <path fill-rule="evenodd" clip-rule="evenodd" d="M7.25 21L7.25 18L8.75 18L8.75 21L7.25 21Z" fill="#B2B9CA"/>
    <path fill-rule="evenodd" clip-rule="evenodd"
          d="M8 17.25C11.4518 17.25 14.25 14.4518 14.25 11L15.75 11C15.75 15.2802 12.2802 18.75 8 18.75C3.71979 18.75 0.25 15.2802 0.250001 11L1.75 11C1.75 14.4518 4.54822 17.25 8 17.25Z"
          fill="#B2B9CA"/>
    <path fill-rule="evenodd" clip-rule="evenodd"
          d="M11.5 11V5C11.5 3.067 9.933 1.5 8 1.5C6.067 1.5 4.5 3.067 4.5 5V11C4.5 12.933 6.067 14.5 8 14.5C9.933 14.5 11.5 12.933 11.5 11ZM8 0C5.23858 0 3 2.23858 3 5V11C3 13.7614 5.23858 16 8 16C10.7614 16 13 13.7614 13 11V5C13 2.23858 10.7614 0 8 0Z"
          fill="#B2B9CA"/>
</svg>
