<svg width="17" height="25" viewBox="0 0 17 25" fill="none" xmlns="http://www.w3.org/2000/svg">
    <circle r="3.75" transform="matrix(-1 0 0 1 12 20)" fill="#35C24D" stroke="white" stroke-width="1.5"/>
    <path fill-rule="evenodd" clip-rule="evenodd"
          d="M11.25 11V5C11.25 3.067 9.683 1.5 7.75 1.5C5.817 1.5 4.25 3.067 4.25 5V11C4.25 12.933 5.817 14.5 7.75 14.5C9.683 14.5 11.25 12.933 11.25 11ZM7.75 0C4.98858 0 2.75 2.23858 2.75 5V11C2.75 13.7614 4.98858 16 7.75 16C10.5114 16 12.75 13.7614 12.75 11V5C12.75 2.23858 10.5114 0 7.75 0ZM8.46986 17.209C8.23366 17.2361 7.99346 17.25 7.75 17.25C4.29822 17.25 1.5 14.4518 1.5 11H0C0 15.0272 3.0717 18.3369 7 18.7142V20.25H4.75V21.75H7.85295C7.62567 21.2121 7.5 20.6207 7.5 20C7.5 18.9457 7.86259 17.976 8.46986 17.209ZM12.0865 15.5008C12.6879 15.5122 13.2604 15.6415 13.7818 15.8666C14.8565 14.5363 15.5 12.8433 15.5 11H14C14 12.7677 13.2662 14.364 12.0865 15.5008Z"
          fill="#E73737"/>
</svg>
